<?xml version="1.0" encoding="utf-8"?>
<!-- Generator: Adobe Illustrator 22.1.0, SVG Export Plug-In . SVG Version: 6.00 Build 0)  -->
<svg version="1.1" xmlns="http://www.w3.org/2000/svg" xmlns:xlink="http://www.w3.org/1999/xlink" x="0px" y="0px"
	 viewBox="0 0 300 303" style="enable-background:new 0 0 300 303;" xml:space="preserve">
<style type="text/css">
	.st0{fill:#8AC34A;}
	.st1{fill:#699F38;}
</style>
<g id="Layer_1">
</g>
<g id="Layer_2">
	<path class="st0" d="M100,152c-9-23-41.8-25.5-54.5-23.5c0,0,0.5,36.5,25.5,50.5c9.1,5.1,19.3,8.1,29,9.1c9.7-1,19.9-4,29-9.1
		c25-14,25.5-50.5,25.5-50.5C141.8,126.5,109,129,100,152z"/>
	<path class="st1" d="M100,152c-9-23-41.8-25.5-54.5-23.5c0,0,0.5,36.5,25.5,50.5c9.1,5.1,19.3,8.1,29,9.1V152z"/>
</g>
</svg>
